<svg xmlns="http://www.w3.org/2000/svg" width="311.669" height="331" viewBox="0 0 311.669 331">
  <g id="Groupe_5" data-name="Groupe 5" transform="translate(0 0)">
    <path id="Tracé_28" data-name="Tracé 28" d="M522.476,752.395c-7.161,0-14,.137-20.253.386a.96.96,0,0,0,.018-.154c0-2.171-7.457-4.154-19.754-5.668,36.217-1.967,60.494-5.578,60.494-9.707,0-6.232-55.275-11.284-123.459-11.284s-123.459,5.052-123.459,11.284c0,1.162,1.924,2.283,5.494,3.338C280.285,741.312,265,743.3,265,745.65c0,2.954,24.263,5.35,54.193,5.35,9.581,0,18.579-.246,26.389-.676-1.885.734-2.9,1.506-2.9,2.3,0,4.753,35.718,8.606,79.778,8.606,18.306,0,35.169-.666,48.632-1.784,7.211,2.118,27.49,3.645,51.382,3.645,29.93,0,54.193-2.4,54.193-5.35S552.406,752.395,522.476,752.395Z" transform="translate(-265 -432.094)" fill="#0a422d"/>
    <path id="Tracé_29" data-name="Tracé 29" d="M359.956,689.789c3.12,11.532,13.805,18.674,13.805,18.674s5.628-11.555,2.508-23.087S362.464,666.7,362.464,666.7,356.836,678.258,359.956,689.789Z" transform="translate(-315.281 -400.397)" fill="#2cd738"/>
    <path id="Tracé_30" data-name="Tracé 30" d="M346.3,700.62c8.56,8.333,9.606,21.143,9.606,21.143s-12.833-.7-21.394-9.034-9.606-21.143-9.606-21.143S337.737,692.286,346.3,700.62Z" transform="translate(-297.038 -413.705)" fill="#0a4c34"/>
    <path id="Tracé_31" data-name="Tracé 31" d="M600.942,182.247s.982,1.126-.7,3.3-.324,6.905,2.874,7.026,4.749,1.46,3.978,3.224-1.7,5.957,1.785,5.319,4.583.749,3.967,1.815,1.553-2.119,1.553-2.119,1.941,2.891,4.323.867,3.329-20.371-1.527-20.682S600.942,182.247,600.942,182.247Z" transform="translate(-443.906 -140.612)" fill="#2f2e41"/>
    <path id="Tracé_32" data-name="Tracé 32" d="M390.5,275.794l1.107,7.746h4.98l-1.66-8.853Z" transform="translate(-208.851 -146.909)" fill="#9f616a"/>
    <path id="Tracé_33" data-name="Tracé 33" d="M653.673,377.83s6.64,6.086,4.98,6.64-7.746,7.193-8.853,7.746c-.99.495-11.62,3.873-9.96,0a14.553,14.553,0,0,1,5.533-6.086l1.107-6.64Z" transform="translate(-465.379 -245.902)" fill="#f2f2f2"/>
    <path id="Tracé_34" data-name="Tracé 34" d="M653.673,377.83s6.64,6.086,4.98,6.64-7.746,7.193-8.853,7.746c-.99.495-11.62,3.873-9.96,0a14.553,14.553,0,0,1,5.533-6.086l1.107-6.64Z" transform="translate(-465.379 -245.902)" opacity="0.1"/>
    <path id="Tracé_35" data-name="Tracé 35" d="M404.779,263.3l1.107,7.747h4.98l-1.66-8.853Z" transform="translate(-216.485 -140.229)" fill="#9f616a"/>
    <path id="Tracé_36" data-name="Tracé 36" d="M625.047,269.98,632.3,246s-12.173-11.066-3.873-14.386,10.513,13.28,10.513,13.28l-2.767,28.772H625.106Z" transform="translate(-457.561 -167.468)" fill="#ffb8b8"/>
    <path id="Tracé_37" data-name="Tracé 37" d="M647.249,276.725s-14.3,18.342-12.13,21.067,6.044,19.325,6.044,19.325-.553,6.64,1.66,6.64,7.746-1.107,7.746-2.767-4.98-22.686-4.98-22.686l14.386-18.813Z" transform="translate(-462.828 -191.829)" fill="#0a422d"/>
    <path id="Tracé_38" data-name="Tracé 38" d="M655.156,270.2l14.386-7.746s9.96,4.98,7.193,9.406S661.243,287.9,661.243,287.9s3.873,18.813,3.32,19.366-6.64,2.767-8.3,2.213-10.513-22.133-8.3-23.239,9.406-12.726,9.406-12.726Z" transform="translate(-469.628 -184.195)" fill="#0a422d"/>
    <path id="Tracé_39" data-name="Tracé 39" d="M566.646,713.732s9.96,6.087,11.066,6.087,16.046,3.873,9.406,6.64-32.092-1.107-31.539-2.766,0-11.62,1.107-11.62S566.646,713.732,566.646,713.732Z" transform="translate(-420.404 -424.662)" fill="#2f2e41"/>
    <path id="Tracé_40" data-name="Tracé 40" d="M590.436,730.384s9.96,6.086,11.066,6.086,16.046,3.873,9.406,6.64-32.092-1.107-31.539-2.767,0-11.62,1.107-11.62S590.436,730.384,590.436,730.384Z" transform="translate(-433.127 -433.568)" fill="#2f2e41"/>
    <path id="Tracé_41" data-name="Tracé 41" d="M567.385,472.49a78.957,78.957,0,0,0,4.427,14.386c2.767,6.086-.553,34.859-2.213,39.285s-17.706,56.992-12.726,57.545,14.94,0,14.94,0l16.046-50.352-2.767-67.5Z" transform="translate(-420.589 -292.977)" fill="#575a88"/>
    <path id="Tracé_42" data-name="Tracé 42" d="M567.385,472.49a78.957,78.957,0,0,0,4.427,14.386c2.767,6.086-.553,34.859-2.213,39.285s-17.706,56.992-12.726,57.545,14.94,0,14.94,0l16.046-50.352-2.767-67.5Z" transform="translate(-420.589 -292.977)" opacity="0.1"/>
    <path id="Tracé_43" data-name="Tracé 43" d="M578.613,471.006s2.213,14.94,7.193,18.259,3.32,6.64,3.32,6.64l-2.213,29.326s-21.579,53.118-14.94,59.758,12.726,3.873,15.493,3.32,7.746-12.173,4.98-15.493,5.533-23.239,7.746-26.559,0-7.746,2.767-8.853,8.853-8.3,8.853-13.28,7.746-58.1,2.767-61.418-36.9,6.852-36.9,6.852Z" transform="translate(-428.497 -290.94)" fill="#575a88"/>
    <circle id="Ellipse_25" data-name="Ellipse 25" cx="12.173" cy="12.173" r="12.173" transform="translate(127.43 78.257)" fill="#ffb8b8"/>
    <circle id="Ellipse_26" data-name="Ellipse 26" cx="9.96" cy="9.96" r="9.96" transform="translate(157.308 36.204)" fill="#9f616a"/>
    <path id="Tracé_44" data-name="Tracé 44" d="M571.407,288.62s6.639,12.173,9.959,12.173-13.28,12.726-13.28,12.726-5.533-16.046-6.64-16.6S571.407,288.62,571.407,288.62Z" transform="translate(-423.505 -198.19)" fill="#ffb8b8"/>
    <path id="Tracé_45" data-name="Tracé 45" d="M567.269,308.592s-14.386,4.98-13.833,6.64-3.873,5.533-3.873,7.193-1.107,16.6,5.533,28.772,17.153,21.026,12.173,26.559-12.726,14.94-4.427,14.94,21.579-12.173,33.752-7.746S606,372.777,606,372.777s1.66-12.726-1.66-16.6-14.94-31.539-14.94-34.859-11.066-16.046-13.833-16.046S567.269,308.592,567.269,308.592Z" transform="translate(-417.154 -207.096)" fill="#8985a8"/>
    <path id="Tracé_46" data-name="Tracé 46" d="M624.579,206.546" transform="translate(-457.311 -154.295)" fill="none" stroke="#2f2e41" stroke-miterlimit="10" stroke-width="1"/>
    <path id="Tracé_47" data-name="Tracé 47" d="M630.526,199.548s4.506,8.567,4.743,10.093,7.983-10.093,7.983-10.093l-8.853-6.086Z" transform="translate(-460.491 -147.298)" fill="#9f616a"/>
    <path id="Tracé_48" data-name="Tracé 48" d="M632.681,209.369l9.406-9.96,11.066,4.98s10.321,22.686,10.97,24.346-16.5,9.406-18.163,9.406-13.28-17.153-13.28-17.153S629.915,212.689,632.681,209.369Z" transform="translate(-460.987 -150.479)" fill="#f2f2f2"/>
    <path id="Tracé_49" data-name="Tracé 49" d="M359.579,155.145V165.1h6.64l-2.184-9.959Z" transform="translate(-192.311 -82.975)" fill="#9f616a"/>
    <path id="Tracé_50" data-name="Tracé 50" d="M628.014,265.425a4.127,4.127,0,0,0-3.9,2.62c-.432,1.17-.286,2.4,1.769,2.913,4.427,1.107,4.98,0,4.98,0s7.684-1.107,6.055-3.32-6.055-2.213-6.055-2.213Z" transform="translate(-456.957 -185.785)" fill="#9f616a"/>
    <path id="Tracé_51" data-name="Tracé 51" d="M667.947,368.314s6.64,6.086,4.98,6.64-7.746,7.193-8.853,7.746c-.99.495-11.62,3.873-9.96,0a14.553,14.553,0,0,1,5.533-6.086l1.107-6.64Z" transform="translate(-473.013 -240.813)" fill="#f2f2f2"/>
    <path id="Tracé_52" data-name="Tracé 52" d="M538.968,264.317c.762-.446,1.661-1,1.683-1.885a1.668,1.668,0,0,0-1.094-1.465,4.9,4.9,0,0,0-1.912-.258,2.489,2.489,0,0,0-.739.073c-.63.194-.993.834-1.49,1.269a6.225,6.225,0,0,1-2.641,1.056,17.289,17.289,0,0,0-4.426,1.834,2.076,2.076,0,0,0-.7.576,2.826,2.826,0,0,0-.281,1.432c-.125,1.877-1.25,3.512-2.091,5.195s-1.392,3.781-.406,5.383a18.337,18.337,0,0,1,1.094,1.554c.7,1.456-.173,3.25.332,4.784a4.185,4.185,0,0,0,1.059,1.588,8.417,8.417,0,0,0,3.487,2.111c1.257.387,2.817.645,3.31,1.865a9.92,9.92,0,0,0,.466,1.619,2.564,2.564,0,0,0,1.818.912,7.767,7.767,0,0,0,2.355.17,2.923,2.923,0,0,0,2.032-1.087,5.94,5.94,0,0,1,.823-1.213c.8-.67,2.018-.141,3.047-.318a2.229,2.229,0,0,0,1.746-1.639,3.1,3.1,0,0,1,.354-1.253c.639-.818,2.32-.24,2.742-1.189.274-.616-.3-1.267-.854-1.651a24.277,24.277,0,0,1-2.726-1.849,3.173,3.173,0,0,1-1.157-2.923c.381-1.6,2.475-2.488,2.545-4.135a2.962,2.962,0,0,0-1.4-2.334,21.521,21.521,0,0,1-2.318-1.623c-.5-.48-.87-1.083-1.41-1.514a6.613,6.613,0,0,0-3.552-1c-.666-.068-3.324-.376-3.219-1.391C535.534,266.169,538.292,264.713,538.968,264.317Z" transform="translate(-403.703 -183.258)" fill="#2f2e41"/>
    <path id="Tracé_53" data-name="Tracé 53" d="M625.684,219.63s-6.086,2.213-6.086,4.98-2.767,11.62,0,11.62,8.3-2.124,8.3-2.124Z" transform="translate(-453.989 -161.293)" fill="#f2f2f2"/>
    <path id="Tracé_54" data-name="Tracé 54" d="M625.716,255.016s16.046-5.533,16.6-5.533,8.3-4.427,7.746-6.086l-2.213-13.833S639,211.3,645.082,211.3s9.406,14.386,9.406,14.386,13.28,24.9,6.086,30.432-37.072,15.493-38.732,13.833S625.716,255.016,625.716,255.016Z" transform="translate(-455.681 -156.84)" fill="#ffb8b8"/>
    <path id="Tracé_55" data-name="Tracé 55" d="M655.524,220.922l3.735,3.6-4.841,4.7s-6.64-2.767-6.086-1.107,3.873,6.64,6.086,6.64,13.732-7.193,13.783-9.406-7.143-9.96-8.8-10.513S655.524,220.922,655.524,220.922Z" transform="translate(-469.996 -158.711)" fill="#9f616a"/>
    <path id="Tracé_56" data-name="Tracé 56" d="M648.735,211.714s8.13,7.177,9.236,7.177,3.119-10.783,3.119-10.783-6.559-4.274-8.989-3.109S648.735,211.714,648.735,211.714Z" transform="translate(-470.23 -153.36)" fill="#f2f2f2"/>
    <path id="Tracé_57" data-name="Tracé 57" d="M587.706,310.64s0-7.746,16.6-7.746H611.5l-3.32,18.259-11.066,3.32Z" transform="translate(-437.59 -205.824)" fill="#8985a8"/>
    <path id="Tracé_58" data-name="Tracé 58" d="M631.2,173.015a42.963,42.963,0,0,1-4.867-.3c-1.269-3.066-2.885-5.639-4.632-6.6a17.527,17.527,0,0,0-4.655-2.555c-3.687-1.566-9.824-.589-10.183,1.192-7.255,3.466-5.421,9.554-5.421,9.554,1.127,2.383,3.656,1.327,5.8.248a4.239,4.239,0,0,0,3.695,3.263c3.543.133,5.261,1.617,4.407,3.572s-1.88,6.6,1.978,5.893,5.078.83,4.395,2.01,1.72-2.348,1.72-2.348,2.15,3.2,4.789.961a2,2,0,0,0,.55-.942,3.966,3.966,0,0,0,2.751.482c3.161-1.414,1.2-4.735,1.2-4.735s4.22-.647,2.86-.54-2.22-1.655.081-4.832S633.333,173.087,631.2,173.015Z" transform="translate(-444.826 -130.887)" fill="#2f2e41"/>
    <rect id="Rectangle_6" data-name="Rectangle 6" width="1.66" height="4.98" transform="matrix(0.949, 0.316, -0.316, 0.949, 163.394, 39.113)" fill="#6c63ff"/>
    <path id="Tracé_59" data-name="Tracé 59" d="M364.16,347.443c-21.527.1-39.049.417-39.049.417s20.827-27.588,38.971-17.367S403.067,347.5,403.067,347.5,385.686,347.344,364.16,347.443Z" transform="translate(-297.149 -219.37)" fill="#f2f2f2"/>
    <path id="Tracé_60" data-name="Tracé 60" d="M697.16,113.443c-21.527.1-39.049.417-39.049.417s20.828-27.588,38.971-17.367S736.066,113.5,736.066,113.5,718.686,113.344,697.16,113.443Z" transform="translate(-475.244 -94.222)" fill="#f2f2f2"/>
    <path id="Tracé_61" data-name="Tracé 61" d="M774.213,364.443c21.527.1,39.049.417,39.049.417s-20.827-27.588-38.971-17.367S735.306,364.5,735.306,364.5,752.687,364.344,774.213,364.443Z" transform="translate(-516.53 -228.462)" fill="#f2f2f2"/>
  </g>
</svg>
