<svg xmlns="http://www.w3.org/2000/svg" width="296.491" height="255.515" viewBox="0 0 296.491 255.515">
  <g id="Groupe_4" data-name="Groupe 4" transform="translate(0 0)" opacity="0.45">
    <path id="Tracé_1" data-name="Tracé 1" d="M0,590.006a.67.67,0,0,0,.673.672H295.818a.672.672,0,0,0,0-1.345H.673A.671.671,0,0,0,0,590.006Z" transform="translate(0 -337.079)" fill="#3f3c57"/>
    <g id="Groupe_1" data-name="Groupe 1" transform="translate(46.22 0)">
      <path id="Tracé_2" data-name="Tracé 2" d="M205.445,63.441l3.21,14.646-6.827,20.386-11-21.9,1.526-12.707Z" transform="translate(-155.368 -36.286)" fill="#fdb4b4"/>
      <rect id="Rectangle_4" data-name="Rectangle 4" width="18.991" height="22.946" transform="translate(34.892 41.042)" fill="#0a422d"/>
      <circle id="Ellipse_1" data-name="Ellipse 1" cx="12.97" cy="12.97" r="12.97" transform="translate(33.104 8.593)" fill="#fdb4b4"/>
      <path id="Tracé_3" data-name="Tracé 3" d="M183.111,31.207s-9.668-17.854-.951-26.446,15.714-2.93,15.714-2.93l4-.161s.833,3.144,2.177,1.442,3.772,4.5,3.772,4.5c4.507,8.116-11.116,9.935-11.116,9.935s1.128,3.594-.019,4.346-4.21,3.584-4.21,3.584l-2.742,2.071-1.63-2.483s-1.7-1.344-2.562-.779.323,7.991.323,7.991l-2.75-1.066h0Z" transform="translate(-148.326 0)" fill="#2e2e41"/>
      <path id="Tracé_4" data-name="Tracé 4" d="M146.272,379.779l-4.958,73.966,12.19.413L169.619,380.4Z" transform="translate(-127.047 -217.221)" fill="#2e2e41"/>
      <path id="Tracé_5" data-name="Tracé 5" d="M215.3,378.814l-4.958,73.966,12.19.413,16.115-73.759Z" transform="translate(-166.527 -216.669)" fill="#2e2e41"/>
      <path id="Tracé_6" data-name="Tracé 6" d="M141.139,227.978l6.489-80.559-9.952-41.949a12.466,12.466,0,0,1,9.135-13.745l9.738-2.583,4.31-4.31,9.8,21.649,6.123-21.633,4.775,3.473,14.162,6.248-.007.146-2.272,50.674,5.071,81.872-.225,0-57.152.714h0Z" transform="translate(-124.899 -48.52)" fill="#e8e9ea"/>
      <path id="Tracé_7" data-name="Tracé 7" d="M213.2,550.619l3.53,10.537s13.809,1.877,14.024,6.152-18.767,1.8-29.882,2.359-1.863-11.478-1.863-11.478l1.184-6.917,13.007-.654Z" transform="translate(-157.982 -314.935)" fill="#2e2e41"/>
      <path id="Tracé_8" data-name="Tracé 8" d="M145.858,548.847l3.53,10.537s13.809,1.877,14.024,6.152-18.767,1.8-29.882,2.359-1.863-11.478-1.863-11.478l1.184-6.917,13.007-.654h0Z" transform="translate(-119.464 -313.922)" fill="#2e2e41"/>
      <path id="uuid-2a99fb06-c611-4846-a9cf-67468c4aeefc" d="M127.259,281.038a13.04,13.04,0,0,1,1.021-6.075l-2.634-21.61,10.319-.953,1.561,22.023a13.04,13.04,0,0,1,1.719,5.914c.3,5.2-2.134,9.576-5.444,9.769s-6.239-3.867-6.542-9.069h0Z" transform="translate(-118.086 -144.364)" fill="#fdb4b4"/>
      <path id="uuid-a83e19fb-8297-4073-aac4-48fd1880d45d" d="M280.359,288.577a13.041,13.041,0,0,1,1.087-6.064l-2.4-21.637,10.329-.84,1.321,22.039a13.04,13.04,0,0,1,1.655,5.932c.247,5.206-2.238,9.552-5.55,9.71s-6.2-3.935-6.443-9.139h0Z" transform="translate(-205.826 -148.732)" fill="#fdb4b4"/>
      <path id="Tracé_9" data-name="Tracé 9" d="M118.314,188.234l-.035-.186L112.9,159.192l6.355-46.988a7.973,7.973,0,1,1,15.8,2.141l-4.783,35.241,3.011,37.693-14.972.956Z" transform="translate(-110.796 -60.227)" fill="#e8e9ea"/>
      <path id="Tracé_10" data-name="Tracé 10" d="M259.859,187.677,249.046,115.5a7.971,7.971,0,0,1,6.1-9.827,7.974,7.974,0,0,1,9.323,5.769l10.388,75.327-14.995.906h0Z" transform="translate(-188.513 -60.347)" fill="#e8e9ea"/>
      <circle id="Ellipse_2" data-name="Ellipse 2" cx="1.327" cy="1.327" r="1.327" transform="translate(44.753 61.903)" fill="#d6d7d8"/>
      <circle id="Ellipse_3" data-name="Ellipse 3" cx="1.327" cy="1.327" r="1.327" transform="translate(44.753 71.953)" fill="#d6d7d8"/>
      <circle id="Ellipse_4" data-name="Ellipse 4" cx="1.327" cy="1.327" r="1.327" transform="translate(44.753 82.004)" fill="#d6d7d8"/>
      <circle id="Ellipse_5" data-name="Ellipse 5" cx="1.327" cy="1.327" r="1.327" transform="translate(44.753 92.055)" fill="#d6d7d8"/>
      <circle id="Ellipse_6" data-name="Ellipse 6" cx="1.327" cy="1.327" r="1.327" transform="translate(44.753 102.106)" fill="#d6d7d8"/>
      <circle id="Ellipse_7" data-name="Ellipse 7" cx="1.327" cy="1.327" r="1.327" transform="translate(44.753 112.156)" fill="#d6d7d8"/>
      <circle id="Ellipse_8" data-name="Ellipse 8" cx="1.327" cy="1.327" r="1.327" transform="translate(44.753 122.207)" fill="#d6d7d8"/>
      <circle id="Ellipse_9" data-name="Ellipse 9" cx="1.327" cy="1.327" r="1.327" transform="translate(44.753 132.258)" fill="#d6d7d8"/>
      <path id="Tracé_11" data-name="Tracé 11" d="M154.065,265.7l-25.117-3.347-.484-.064-12.837-29.6-7.645-17.622H127.9Z" transform="translate(-107.983 -123.01)" fill="#0a422d"/>
    </g>
    <g id="Groupe_2" data-name="Groupe 2" transform="translate(166.719 12.177)">
      <path id="Tracé_12" data-name="Tracé 12" d="M447.578,59.274l15.969-8.748V75.521H445.079Z" transform="translate(-421.289 -41.076)" fill="#2e2e41"/>
      <path id="Tracé_13" data-name="Tracé 13" d="M475.191,83.438l1.474,12.271L466.044,116.86l-6.593-19.686,3.1-14.144Z" transform="translate(-429.509 -59.667)" fill="#fdb4b4"/>
      <rect id="Rectangle_5" data-name="Rectangle 5" width="18.339" height="22.159" transform="translate(29.366 36.774)" fill="#0a422d"/>
      <path id="Tracé_14" data-name="Tracé 14" d="M506.169,388.514l4.789,71.428-11.772.4-15.562-71.228Z" transform="translate(-443.335 -234.393)" fill="#2e2e41"/>
      <path id="Tracé_15" data-name="Tracé 15" d="M439.513,387.582,444.3,459.01l-11.771.4L416.967,388.18Z" transform="translate(-405.21 -233.86)" fill="#2e2e41"/>
      <path id="Tracé_16" data-name="Tracé 16" d="M464.77,240.735h-.28L389.5,240.49l.067-.265,19.28-76.387-4.83-38.55a16.429,16.429,0,0,1,9.731-17.181l2.432-1.073,4.619-3.359,5.909,20.881,9.463-20.9,4.169,4.168,9.4,2.494a12.041,12.041,0,0,1,8.831,13.262l-.01.042L444.2,164.591l20.566,76.145Z" transform="translate(-389.499 -71.465)" fill="#e8e9ea"/>
      <path id="Tracé_17" data-name="Tracé 17" d="M432.438,553.492l12.56.631,1.144,6.679s8.935,11.624-1.8,11.084-29.064,1.85-28.856-2.278,13.542-5.941,13.542-5.941l3.409-10.175h0Z" transform="translate(-404.362 -328.755)" fill="#2e2e41"/>
      <path id="Tracé_18" data-name="Tracé 18" d="M497.47,551.781l12.56.631,1.144,6.679s8.935,11.624-1.8,11.084-29.064,1.85-28.856-2.278,13.542-5.941,13.542-5.941l3.408-10.175h0Z" transform="translate(-441.558 -327.776)" fill="#2e2e41"/>
      <path id="uuid-3bc2e7c3-8a4e-432b-b93d-ff096d796d3b" d="M531.495,291.45h0c-.292,5.023-3.121,8.944-6.318,8.757s-5.55-4.409-5.257-9.434a12.594,12.594,0,0,1,1.66-5.711l1.507-21.267,9.965.92-2.544,20.868a12.593,12.593,0,0,1,.986,5.867h0Z" transform="translate(-464.081 -163.058)" fill="#fdb4b4"/>
      <path id="uuid-a34cbb18-fa14-4c0b-8260-87fab6b8d9f9" d="M411.85,286.756h0c-.4,5.016-3.311,8.875-6.5,8.621s-5.455-4.526-5.055-9.544a12.592,12.592,0,0,1,1.781-5.674l1.96-21.23,9.943,1.132-2.988,20.809a12.593,12.593,0,0,1,.861,5.886h0Z" transform="translate(-395.646 -160.275)" fill="#fdb4b4"/>
      <path id="Tracé_19" data-name="Tracé 19" d="M529.024,201.83l-14.473-.924.018-.217,2.891-36.19-4.618-34.031a7.707,7.707,0,0,1,7.022-8.719h0a7.709,7.709,0,0,1,8.252,6.65l6.137,45.377-.006.034-5.222,28.019Z" transform="translate(-460.006 -81.799)" fill="#e8e9ea"/>
      <path id="Tracé_20" data-name="Tracé 20" d="M413.615,199.579l-14.5-.876.032-.229,10-72.5a7.712,7.712,0,0,1,9.017-5.6,7.707,7.707,0,0,1,5.889,9.521l-10.438,69.683Z" transform="translate(-395.002 -80.935)" fill="#e8e9ea"/>
      <circle id="Ellipse_10" data-name="Ellipse 10" cx="1.282" cy="1.282" r="1.282" transform="translate(35.619 56.919)" fill="#d6d7d8"/>
      <circle id="Ellipse_11" data-name="Ellipse 11" cx="1.282" cy="1.282" r="1.282" transform="translate(35.619 66.625)" fill="#d6d7d8"/>
      <circle id="Ellipse_12" data-name="Ellipse 12" cx="1.282" cy="1.282" r="1.282" transform="translate(35.619 76.33)" fill="#d6d7d8"/>
      <circle id="Ellipse_13" data-name="Ellipse 13" cx="1.282" cy="1.282" r="1.282" transform="translate(35.619 86.036)" fill="#d6d7d8"/>
      <circle id="Ellipse_14" data-name="Ellipse 14" cx="1.282" cy="1.282" r="1.282" transform="translate(35.619 95.742)" fill="#d6d7d8"/>
      <circle id="Ellipse_15" data-name="Ellipse 15" cx="1.282" cy="1.282" r="1.282" transform="translate(35.619 105.448)" fill="#d6d7d8"/>
      <circle id="Ellipse_16" data-name="Ellipse 16" cx="1.282" cy="1.282" r="1.282" transform="translate(35.619 115.154)" fill="#d6d7d8"/>
      <circle id="Ellipse_17" data-name="Ellipse 17" cx="1.282" cy="1.282" r="1.282" transform="translate(35.619 124.86)" fill="#d6d7d8"/>
      <circle id="Ellipse_18" data-name="Ellipse 18" cx="11.99" cy="11.99" r="11.99" transform="translate(26.856 6.053)" fill="#fdb4b4"/>
      <path id="Tracé_21" data-name="Tracé 21" d="M458.162,32.494c.575,1.169-.337,2.628-1.543,3.119a7.233,7.233,0,0,1-3.854.088,7.14,7.14,0,0,0-3.853.1c-1.556.647-2.433,2.27-3.188,3.776l-4.232,8.434a10.16,10.16,0,0,0-1.407,4.346c-.024,2.821,2.213,5.075,3.417,7.626a10.9,10.9,0,0,1-8.541,15.471,4.64,4.64,0,0,1-2.653-.31,2.2,2.2,0,0,1-1.273-2.189c.292-1.743,2.956-2.15,3.445-3.849a2.818,2.818,0,0,0-.807-2.526c-.61-.692-1.381-1.233-1.962-1.949a5.077,5.077,0,0,1-.208-5.943c.718-1.023,1.829-1.784,2.293-2.945a6.179,6.179,0,0,0,.1-3.157l-.578-4.067a11.4,11.4,0,0,1,0-4.755c1.017-3.517,4.989-5.169,7.318-7.994,1.082-1.313,1.81-2.892,2.921-4.181a9.047,9.047,0,0,1,14.628,1.276" transform="translate(-413.032 -28.448)" fill="#2e2e41"/>
      <path id="Tracé_22" data-name="Tracé 22" d="M486.822,38.418a1.29,1.29,0,0,0-.635,1.571,4.34,4.34,0,0,0,1.014,1.548,18.748,18.748,0,0,1,2.6,19.789,26.672,26.672,0,0,0-2.318,5.1c-.317,1.324-.3,2.777-1.035,3.924-.748,1.167-2.23,1.95-2.377,3.328a2.585,2.585,0,0,0,1.168,2.263,6.648,6.648,0,0,0,2.474.95,34.43,34.43,0,0,0,6.877.818,5.318,5.318,0,0,0,2.223-.3A2.014,2.014,0,0,0,498.1,75.7c.006-.593-.336-1.139-.379-1.73-.131-1.771,2.252-2.713,2.716-4.426a4.214,4.214,0,0,0-.937-3.262,5.957,5.957,0,0,1-1.356-3.168c.015-1.117.716-2.1.989-3.185a8.531,8.531,0,0,0-.545-4.543l-1.172-3.764-1.245-4a18.523,18.523,0,0,0-3.054-6.592c-1.568-1.868-4.167-3.092-6.484-2.329" transform="translate(-443.584 -34.15)" fill="#2e2e41"/>
    </g>
    <g id="Groupe_3" data-name="Groupe 3" transform="translate(185.05 45.455)">
      <path id="Tracé_23" data-name="Tracé 23" d="M505.808,123.647l-.822-.24c1.712-5.871-1.98-16.826-2.017-16.936l.81-.276c.157.46,3.816,11.324,2.029,17.452Z" transform="translate(-472.731 -106.195)" fill="#3f3c57"/>
      <circle id="Ellipse_19" data-name="Ellipse 19" cx="3.576" cy="3.576" r="3.576" transform="translate(29.09 17.043)" fill="#3f3c57"/>
      <path id="Tracé_24" data-name="Tracé 24" d="M441.5,153.784h-2.169a.428.428,0,1,1,0-.856H441.5a2.233,2.233,0,0,0,2.234-2.238l-.026-13.357a5.261,5.261,0,1,0-10.522,0l.026,12.5a2.241,2.241,0,0,0,2.217,2.229l1.489.011a.428.428,0,0,1,0,.856h0l-1.488-.011a3.1,3.1,0,0,1-3.066-3.083l-.026-12.5a6.117,6.117,0,1,1,12.234,0l.026,13.357a3.09,3.09,0,0,1-3.09,3.1Z" transform="translate(-432.324 -120.506)" fill="#3f3c57"/>
      <circle id="Ellipse_20" data-name="Ellipse 20" cx="1.517" cy="1.517" r="1.517" transform="translate(3.067 30.48)" fill="#3f3c57"/>
      <circle id="Ellipse_21" data-name="Ellipse 21" cx="1.517" cy="1.517" r="1.517" transform="translate(5.485 31.334)" fill="#3f3c57"/>
    </g>
    <path id="Tracé_25" data-name="Tracé 25" d="M240.333,108.8l-.822-.24c1.712-5.871-1.938-17-1.975-17.106l1.027.774c.157.46,3.557,10.443,1.77,16.571Z" transform="translate(-135.863 -52.309)" fill="#3f3c57"/>
    <path id="Tracé_26" data-name="Tracé 26" d="M175.916,111.463l.822-.24c-1.712-5.871,1.98-16.826,2.017-16.936l-.879.589c-.157.46-3.747,10.459-1.96,16.587Z" transform="translate(-100.333 -53.929)" fill="#3f3c57"/>
    <circle id="Ellipse_22" data-name="Ellipse 22" cx="3.576" cy="3.576" r="3.576" transform="translate(100.484 56.082)" fill="#3f3c57"/>
    <path id="Tracé_27" data-name="Tracé 27" d="M173.233,155.63h-2.169a.428.428,0,0,1,0-.856h2.169a2.233,2.233,0,0,0,2.234-2.238l-.026-13.357a5.261,5.261,0,1,0-10.522,0l.026,12.5a2.241,2.241,0,0,0,2.217,2.229l1.489.011a.428.428,0,0,1,0,.856h0l-1.489-.011a3.1,3.1,0,0,1-3.066-3.083l-.026-12.5a6.117,6.117,0,1,1,12.235,0l.026,13.357a3.09,3.09,0,0,1-3.09,3.1Z" transform="translate(-93.838 -76.106)" fill="#3f3c57"/>
    <circle id="Ellipse_23" data-name="Ellipse 23" cx="1.517" cy="1.517" r="1.517" transform="translate(73.291 76.725)" fill="#3f3c57"/>
    <circle id="Ellipse_24" data-name="Ellipse 24" cx="1.517" cy="1.517" r="1.517" transform="translate(75.709 77.579)" fill="#3f3c57"/>
  </g>
</svg>
