<svg id="Groupe_16" data-name="Groupe 16" xmlns="http://www.w3.org/2000/svg" width="345.886" height="207.961" viewBox="0 0 345.886 207.961">
  <path id="Tracé_112" data-name="Tracé 112" d="M226.518,655.193c-.023-.1-2.261-10.307,2.309-18.782s14.326-12.213,14.424-12.25l.446-.167.105.465c.023.1,2.261,10.307-2.309,18.782s-14.326,12.213-14.424,12.25l-.446.167Zm16.568-30.065c-1.954.841-9.667,4.519-13.527,11.678s-2.7,15.625-2.324,17.719c1.953-.839,9.663-4.512,13.526-11.678s2.7-15.624,2.324-17.719Z" transform="translate(-208.472 -447.697)" fill="#f1f1f1"/>
  <path id="Tracé_113" data-name="Tracé 113" d="M238.949,658.286c-8.213,4.941-11.376,14.756-11.376,14.756s10.153,1.8,18.366-3.138,11.376-14.756,11.376-14.756S247.162,653.344,238.949,658.286Z" transform="translate(-209.42 -465.715)" fill="#f1f1f1"/>
  <path id="Tracé_114" data-name="Tracé 114" d="M533.757,451.58a4.5,4.5,0,0,0-4.356-5.36l-3.8-9.565-6.376.894,5.561,13.432a4.529,4.529,0,0,0,8.974.6Z" transform="translate(-379.852 -338.221)" fill="#9f616a"/>
  <path id="Tracé_115" data-name="Tracé 115" d="M505.842,363.882l-1.976-4.711-12.311-23.435.669-43.363.129-.017c7.878-1.041,13.208,35.257,13.431,36.8l7.779,26.6,1.852,5.864Z" transform="translate(-363.684 -253.883)" fill="#10734e"/>
  <path id="Tracé_116" data-name="Tracé 116" d="M296.516,452.195H302.5l2.847-23.088h-8.835Z" transform="translate(-173.276 -250.758)" fill="#9f616a"/>
  <path id="Tracé_117" data-name="Tracé 117" d="M476.741,679.777H488.53a7.513,7.513,0,0,1,7.512,7.512v.245h-19.3Z" transform="translate(-355.027 -480.295)" fill="#2f2e41"/>
  <path id="Tracé_118" data-name="Tracé 118" d="M164.1,436.081l4.911,3.422,15.537-17.314-7.249-5.051Z" transform="translate(-95.893 -243.765)" fill="#9f616a"/>
  <path id="Tracé_119" data-name="Tracé 119" d="M341.432,656.579l9.672,6.74h0a7.513,7.513,0,0,1,1.868,10.459l-.14.2L337,662.943Z" transform="translate(-273.365 -466.739)" fill="#2f2e41"/>
  <path id="Tracé_120" data-name="Tracé 120" d="M407.248,541.533l-.259-43.312-3.767-27.234-7.022,23.95-.014.02L370.741,531.9l-9.9-5.017.054-.129c.605-1.439,14.864-35.242,18.7-35.242a2.07,2.07,0,0,0,1.763-.775c1.125-1.5.209-4.689.2-4.721-1.1-4.549,1.661-6.1,2.211-6.357l1.478-30.506.153.011,40.062,2.81-1.681,38.14-3.615,49.972-.124.014Z" transform="translate(-287.297 -345.523)" fill="#2f2e41"/>
  <path id="Tracé_121" data-name="Tracé 121" d="M456.959,364.136l-.173-.014L413.7,360.649l.106-14.256,2.109-37.223.012-.026,8.588-18.644,6.088-2.757,8.882-.467.022.005,8.106,2.008,8.432,60.531Z" transform="translate(-318.188 -250.928)" fill="#10734e"/>
  <circle id="Ellipse_36" data-name="Ellipse 36" cx="11.344" cy="11.344" r="11.344" transform="translate(101.851 17.103) rotate(-28.663)" fill="#9f616a"/>
  <path id="Tracé_122" data-name="Tracé 122" d="M436.46,235.3v-4.42s-3.564-4.2.357-5.255c0,0,1.069-10.575,10.337-5.64,0,0,12.832-2.115,11.406,5.287,0,0,3.208-1.932,2.139,3l-2.068,7.949s1-5.251-2.209-5.956l-1.782-1.057s-4.99,4.935-12.475-1.057c0,0-3.208-.766-2.852,2.407S436.46,235.3,436.46,235.3Z" transform="translate(-330.621 -210.84)" fill="#2f2e41"/>
  <path id="Tracé_123" data-name="Tracé 123" d="M439.509,428a4.5,4.5,0,0,0-5.247-4.492l-5.458-8.727-6.112,2.023,7.881,12.216A4.529,4.529,0,0,0,439.509,428Z" transform="translate(-323.443 -325.44)" fill="#9f616a"/>
  <path id="Tracé_124" data-name="Tracé 124" d="M415.353,355.044,405.478,335l.009-.049c.04-.222,4.015-22.292,7.055-30.4,3.059-8.163,7.247-9.8,7.423-9.868l.088-.033,3.755,3.6-5.2,34.716,5.606,16.743Z" transform="translate(-313.383 -255.233)" fill="#10734e"/>
  <rect id="Rectangle_20" data-name="Rectangle 20" width="19.119" height="19.119" transform="translate(326.768)" fill="#f1f1f1"/>
  <rect id="Rectangle_21" data-name="Rectangle 21" width="19.119" height="19.119" transform="translate(177.142 74.397)" fill="#f1f1f1"/>
  <path id="Tracé_125" data-name="Tracé 125" d="M635.922,297.077H787.075V220.556H635.922Z" transform="translate(-448.049 -211.938)" fill="#fff"/>
  <path id="Tracé_126" data-name="Tracé 126" d="M786.57,296.57H632.922V217.556H786.569Zm-151.153-2.494H784.076V220.05H635.416Z" transform="translate(-446.296 -210.185)" fill="#e5e5e5"/>
  <rect id="Rectangle_22" data-name="Rectangle 22" width="116.295" height="3.857" transform="translate(206.017 35.459)" fill="#e5e5e5"/>
  <rect id="Rectangle_23" data-name="Rectangle 23" width="116.295" height="3.857" transform="translate(206.017 44.812)" fill="#e5e5e5"/>
  <rect id="Rectangle_24" data-name="Rectangle 24" width="21.613" height="3.347" transform="translate(300.699 58.622)" fill="#10734e"/>
  <path id="Tracé_127" data-name="Tracé 127" d="M342.666,698.969H184.313a.416.416,0,0,1,0-.831H342.666a.416.416,0,0,1,0,.831Z" transform="translate(-183.897 -491.025)" fill="#cbcbcb"/>
</svg>
