<svg xmlns="http://www.w3.org/2000/svg" width="291.536" height="220.115" viewBox="0 0 291.536 220.115">
  <g id="Groupe_15" data-name="Groupe 15" transform="translate(0 0)">
    <path id="Tracé_65" data-name="Tracé 65" d="M393.062,193.536H321.144a1.333,1.333,0,0,1-1.332-1.332v-17.84a1.333,1.333,0,0,1,1.332-1.332h71.919a1.333,1.333,0,0,1,1.332,1.332V192.2A1.333,1.333,0,0,1,393.062,193.536Zm-71.919-19.971a.8.8,0,0,0-.8.8V192.2a.8.8,0,0,0,.8.8h71.919a.8.8,0,0,0,.8-.8v-17.84a.8.8,0,0,0-.8-.8Z" transform="translate(-258.619 -146.578)" fill="#3f3d56"/>
    <circle id="Ellipse_28" data-name="Ellipse 28" cx="5.425" cy="5.425" r="5.425" transform="translate(68.274 30.596)" fill="#fff"/>
    <path id="Tracé_66" data-name="Tracé 66" d="M400.662,192.745a.9.9,0,1,0,0,1.808h42.626a.9.9,0,1,0,0-1.808Z" transform="translate(-314.433 -160.34)" fill="#e6e6e6"/>
    <path id="Tracé_67" data-name="Tracé 67" d="M400.662,210.718a.9.9,0,1,0,0,1.808H419a.9.9,0,1,0,0-1.808Z" transform="translate(-314.433 -172.888)" fill="#e6e6e6"/>
    <path id="Tracé_68" data-name="Tracé 68" d="M382.035,368.473H350.072a1.333,1.333,0,0,1-1.332-1.332V333.853a1.333,1.333,0,0,1,1.332-1.332h31.964a1.333,1.333,0,0,1,1.332,1.332v33.289A1.333,1.333,0,0,1,382.035,368.473Zm-31.964-35.42a.8.8,0,0,0-.8.8v33.289a.8.8,0,0,0,.8.8h31.964a.8.8,0,0,0,.8-.8V333.853a.8.8,0,0,0-.8-.8Z" transform="translate(-278.815 -257.925)" fill="#3f3d56"/>
    <path id="Tracé_69" data-name="Tracé 69" d="M373.624,355.263a.9.9,0,1,0,0,1.808h18.342a.9.9,0,1,0,0-1.808Z" transform="translate(-295.556 -273.802)" fill="#e6e6e6"/>
    <path id="Tracé_70" data-name="Tracé 70" d="M373.624,372.911a.9.9,0,1,0,0,1.808h18.342a.9.9,0,1,0,0-1.808Z" transform="translate(-295.556 -286.123)" fill="#e6e6e6"/>
    <path id="Tracé_71" data-name="Tracé 71" d="M392.934,402.558a5.691,5.691,0,1,1,5.691-5.691A5.692,5.692,0,0,1,392.934,402.558Z" transform="translate(-305.696 -298.874)" fill="#fff"/>
    <path id="Tracé_72" data-name="Tracé 72" d="M629.433,85.393H661.4a1.333,1.333,0,0,1,1.332,1.332v33.289a1.333,1.333,0,0,1-1.332,1.332H629.433a1.333,1.333,0,0,1-1.332-1.332V86.725A1.333,1.333,0,0,1,629.433,85.393Zm31.964,35.42a.8.8,0,0,0,.8-.8V86.725a.8.8,0,0,0-.8-.8H629.433a.8.8,0,0,0-.8.8v33.289a.8.8,0,0,0,.8.8Z" transform="translate(-473.85 -85.393)" fill="#3f3d56"/>
    <path id="Tracé_73" data-name="Tracé 73" d="M671.328,177.575a.9.9,0,0,0,0-1.808H652.986a.9.9,0,1,0,0,1.808Z" transform="translate(-490.592 -148.487)" fill="#e6e6e6"/>
    <path id="Tracé_74" data-name="Tracé 74" d="M671.328,159.926a.9.9,0,0,0,0-1.808H652.986a.9.9,0,1,0,0,1.808Z" transform="translate(-490.592 -136.166)" fill="#e6e6e6"/>
    <path id="Tracé_75" data-name="Tracé 75" d="M672.3,108.135a5.691,5.691,0,1,1-5.691,5.691A5.692,5.692,0,0,1,672.3,108.135Z" transform="translate(-500.731 -101.27)" fill="#fff"/>
    <path id="Tracé_76" data-name="Tracé 76" d="M319.646,289.815a45.565,45.565,0,0,1,19.29-8.72,44.906,44.906,0,0,1,21.289,1.094,45.415,45.415,0,0,1,9.935,4.3A57.809,57.809,0,0,1,379,293.079c2.807,2.46,5.522,5.03,8.452,7.346a47.352,47.352,0,0,0,29.462,10.364q1.327,0,2.653-.073c.479-.026.482-.775,0-.748a46.589,46.589,0,0,1-30.456-9.2c-3.037-2.271-5.81-4.868-8.641-7.384a66.842,66.842,0,0,0-8.677-6.773,45.839,45.839,0,0,0-50.609,1.154c-.7.489-1.389,1-2.064,1.525-.38.3.153.822.529.529Z" transform="translate(-258.043 -220.945)" fill="#3f3d56"/>
    <circle id="Ellipse_29" data-name="Ellipse 29" cx="3.89" cy="3.89" r="3.89" transform="translate(57.317 64.709)" fill="#3f3d56"/>
    <circle id="Ellipse_30" data-name="Ellipse 30" cx="3.89" cy="3.89" r="3.89" transform="translate(202.018 116.352)" fill="#3f3d56"/>
    <path id="Tracé_77" data-name="Tracé 77" d="M716.868,327.8H653.4a1.333,1.333,0,0,1-1.332-1.332V293.442a1.333,1.333,0,0,1,1.332-1.332h63.467a1.333,1.333,0,0,1,1.332,1.332v33.023A1.333,1.333,0,0,1,716.868,327.8ZM653.4,292.643a.8.8,0,0,0-.8.8v33.023a.8.8,0,0,0,.8.8h63.467a.8.8,0,0,0,.8-.8V293.442a.8.8,0,0,0-.8-.8Z" transform="translate(-490.584 -229.712)" fill="#3f3d56"/>
    <circle id="Ellipse_31" data-name="Ellipse 31" cx="5.425" cy="5.425" r="5.425" transform="translate(168.034 68.671)" fill="#fff"/>
    <path id="Tracé_78" data-name="Tracé 78" d="M731.155,318.883a.9.9,0,1,0,0,1.808h34.174a.9.9,0,0,0,0-1.808Z" transform="translate(-545.166 -248.403)" fill="#e6e6e6"/>
    <path id="Tracé_79" data-name="Tracé 79" d="M731.155,336.856a.9.9,0,1,0,0,1.808H749.5a.9.9,0,0,0,0-1.808Z" transform="translate(-545.166 -260.951)" fill="#e6e6e6"/>
    <path id="Tracé_80" data-name="Tracé 80" d="M675.067,365.589c-.688,0-1.247.406-1.247.9s.56.9,1.247.9h50.359c.688,0,1.248-.406,1.248-.9s-.56-.9-1.248-.9Z" transform="translate(-505.768 -281.011)" fill="#e6e6e6"/>
    <path id="Tracé_81" data-name="Tracé 81" d="M675.067,383.562c-.688,0-1.247.406-1.247.9s.56.9,1.247.9h50.359c.688,0,1.248-.406,1.248-.9s-.56-.9-1.248-.9Z" transform="translate(-505.768 -293.559)" fill="#e6e6e6"/>
    <path id="Tracé_82" data-name="Tracé 82" d="M638.253,484.523c3.58-1.553,7.578-.2,10.953,1.233,1.738.737,3.458,1.524,5.256,2.106a29.966,29.966,0,0,0,4.635,1.1,32.747,32.747,0,0,0,9.52.058,33.242,33.242,0,0,0,9.188-2.671,31.068,31.068,0,0,0,7.951-5.2q.452-.408.886-.835c.345-.338-.185-.867-.529-.529a30.183,30.183,0,0,1-7.757,5.476,32.494,32.494,0,0,1-9.012,2.9,31.828,31.828,0,0,1-9.5.164,29.906,29.906,0,0,1-4.65-1.011,49.181,49.181,0,0,1-5.132-1.993c-3.406-1.463-7.191-2.9-10.934-1.886a9.12,9.12,0,0,0-1.256.448C637.435,484.068,637.816,484.713,638.253,484.523Z" transform="translate(-480.538 -360.66)" fill="#3f3d56"/>
    <path id="Tracé_83" data-name="Tracé 83" d="M565.646,487.334H535.661l7.056-12.222a1.441,1.441,0,0,1,2.5,0l3.014,5.221,5.126-8.878a1.8,1.8,0,0,1,3.125,0Z" transform="translate(-409.314 -354.291)" fill="#fff"/>
    <path id="Tracé_84" data-name="Tracé 84" d="M558.082,478.713H526.119a1.333,1.333,0,0,1-1.332-1.332v-17.84a1.333,1.333,0,0,1,1.332-1.332h31.964a1.333,1.333,0,0,1,1.332,1.332v17.84A1.333,1.333,0,0,1,558.082,478.713Zm-31.964-19.971a.8.8,0,0,0-.8.8v17.84a.8.8,0,0,0,.8.8h31.964a.8.8,0,0,0,.8-.8v-17.84a.8.8,0,0,0-.8-.8Z" transform="translate(-401.722 -345.673)" fill="#3f3d56"/>
    <path id="Tracé_85" data-name="Tracé 85" d="M818.14,423.2l-5.7,2.893c-2.034,1.033-4,.856-4.748-1.3h0a3.767,3.767,0,0,1,2.866-4.945l5.415-1.011,23.191-7.694,14.048-9.961,5.15,8.2-16.232,8.759Z" transform="translate(-599.086 -305.862)" fill="#ffb8b8"/>
    <path id="Tracé_86" data-name="Tracé 86" d="M803.725,686.148l-4.359-.727.484-8.234h4.6Z" transform="translate(-558.075 -472.776)" fill="#ffb8b8"/>
    <path id="Tracé_87" data-name="Tracé 87" d="M936.628,660.972l-4.219,1.316-3.278-7.568,4.107-2.074Z" transform="translate(-648.67 -455.643)" fill="#ffb8b8"/>
    <path id="Tracé_88" data-name="Tracé 88" d="M951.284,560.243l-5.328,2.18L920.529,529l-7.992,39.232-5.328-.969c-3.418-33.823-6.2-68.322-2.785-84.639l19.737-.848,8.96,28.576,4.359,19.374Z" transform="translate(-665.676 -362.129)" fill="#2f2e41"/>
    <path id="Tracé_89" data-name="Tracé 89" d="M905.906,791.186h0a3.825,3.825,0,0,1-2.371-.252l-2.59-1.165c-2.171-.112-3.65.321-4.859-1.257a3.168,3.168,0,0,1-.37-3.194h0a3.19,3.19,0,0,1,2.605-1.9l3.557-2.241.187,1.68c1.626.921,3.556.523,5.6-.373l1.116,3.907a3.825,3.825,0,0,1-2.876,4.791Z" transform="translate(-660.496 -571.156)" fill="#2f2e41"/>
    <path id="Tracé_90" data-name="Tracé 90" d="M1050.047,767.425h0a3.826,3.826,0,0,1-2.325.532l-2.828-.261c-2.09.6-3.348,1.489-5,.389a3.168,3.168,0,0,1-1.387-2.9h0a3.189,3.189,0,0,1,1.849-2.639l2.636-3.275.722,1.529c1.837.343,3.533-.66,5.176-2.172l2.325,3.333a3.825,3.825,0,0,1-1.165,5.465Z" transform="translate(-760.364 -555.409)" fill="#2f2e41"/>
    <circle id="Ellipse_32" data-name="Ellipse 32" cx="8.718" cy="8.718" r="8.718" transform="translate(242.502 67.825)" fill="#ffb8b8"/>
    <path id="Tracé_91" data-name="Tracé 91" d="M837.875,283.187l-11.382-2.422-1.453-9.445,7.992-1.7Z" transform="translate(-576 -188.238)" fill="#ffb8b8"/>
    <path id="Tracé_92" data-name="Tracé 92" d="M927.169,414.573H906.826l4.585-11.512c-.333-3.961,1.346-6.875,3.748-9.411L918.208,386c4.925-3.242,8.639-3,12.593,1.211C935.488,393.845,932.244,403.823,927.169,414.573Z" transform="translate(-668.441 -293.711)" fill="#10734e"/>
    <path id="Tracé_93" data-name="Tracé 93" d="M927.243,471.042l-.578,6.364c-.206,2.271-1.4,3.84-3.623,3.332h0a3.767,3.767,0,0,1-2.665-5.056l2.023-5.124,5.812-23.733-.969-17.194h9.687l-1.211,18.405Z" transform="translate(-677.718 -325.722)" fill="#ffb8b8"/>
    <path id="Tracé_94" data-name="Tracé 94" d="M952.465,403.243h-11.14l.781-7.267a5.041,5.041,0,0,1,4.785-4.829h0a5.041,5.041,0,0,1,5.289,4.837Z" transform="translate(-692.527 -298.85)" fill="#10734e"/>
    <circle id="Ellipse_33" data-name="Ellipse 33" cx="3.277" cy="3.277" r="3.277" transform="translate(258.733 61.025)" fill="#2f2e41"/>
    <path id="Tracé_95" data-name="Tracé 95" d="M972.946,288.607a3.274,3.274,0,0,1,3.275-3.063c-.068-.009-.135-.019-.2-.023a3.277,3.277,0,1,0-.42,6.54c.069,0,.137,0,.205,0A3.274,3.274,0,0,1,972.946,288.607Z" transform="translate(-714.312 -225.107)" fill="#2f2e41"/>
    <path id="Tracé_96" data-name="Tracé 96" d="M930.387,298.321c-2.922-2.424-11.3.657-11.846,2.287-3.952.539-6.944,2.844-6.944,6.944h0a11.857,11.857,0,0,0,7.911,0c4.6,3.753,4.92,8.47,2.12,13.888l3.445.069,4.271-6.242.2,6.331,7.9-.158v-9.073a18.969,18.969,0,0,0-2.025-8.69C934.189,301.287,932.279,299.891,930.387,298.321Z" transform="translate(-671.772 -233.422)" fill="#2f2e41"/>
    <ellipse id="Ellipse_34" data-name="Ellipse 34" cx="1.567" cy="2.194" rx="1.567" ry="2.194" transform="translate(249.694 76.541)" fill="#ffb8b8"/>
    <path id="Tracé_97" data-name="Tracé 97" d="M296.282,325.005s.943-16.327,5.84-12.617-2.139,14.131-2.139,14.131Z" transform="translate(-242.192 -243.486)" fill="#ffb9b9"/>
    <path id="Tracé_98" data-name="Tracé 98" d="M227.393,515.9s10.878,12.212,4.792,13.052-8.48-11.5-8.48-11.5Z" transform="translate(-191.522 -385.95)" fill="#ffb9b9"/>
    <path id="Tracé_99" data-name="Tracé 99" d="M169.824,324.245h0a7.164,7.164,0,0,1,5.271,5.931l3.46,24.629,4.851,19.646s2.425,2.183,1.455,3.4,1.213,6.306,1.213,6.306l-6.064,1.94s-.728-5.093-1.94-5.336c-1.066-.213-13-32.084-15.872-39.8-.4-1.065-.621-1.67-.621-1.67S162.063,323.033,169.824,324.245Z" transform="translate(-148.148 -252.102)" fill="#575a89"/>
    <path id="Tracé_100" data-name="Tracé 100" d="M181.839,749.885l3.724,6.6c2.884,6.158.321,7.276-6.75,4.224l-1.612-7.793Z" transform="translate(-159.056 -549.306)" fill="#ffb9b9"/>
    <path id="Tracé_101" data-name="Tracé 101" d="M179.675,773.276s1.768-2.879,2.407-2.4,3.277,2.57,3.277,2.57l3.435,3.291s11.607,1.227,4.232,5.294-11.451.695-11.451.695-10.33.537-10.164-2.345,3.5-7.442,3.5-7.442S179.109,775.757,179.675,773.276Z" transform="translate(-155.013 -563.925)" fill="#2f2e41"/>
    <path id="Tracé_102" data-name="Tracé 102" d="M137.815,490.08l3.492,42.248s.116,25.256,3.841,30.144,3.841,7.332,3.841,7.332l7.682-3.957s-3.957-6.594-3.142-7.6a5.626,5.626,0,0,0,1.047-2.173L152.48,530l3.957-45.391Z" transform="translate(-131.558 -364.105)" fill="#2f2e41"/>
    <path id="Tracé_103" data-name="Tracé 103" d="M155.551,766.85" transform="translate(-143.941 -561.15)" fill="none" stroke="#3f3d56" stroke-miterlimit="10" stroke-width="1"/>
    <path id="Tracé_104" data-name="Tracé 104" d="M27.713,662.338l-3.259,8.613-7.391-3.09,3.9-6.454Z" transform="translate(-11.913 -461.759)" fill="#ffb9b9"/>
    <path id="Tracé_105" data-name="Tracé 105" d="M127.451,763.39s2.772-1.732,3.118-1.039,1.732,3.638,1.732,3.638l1.559,4.331s9.528,6.063,1.386,6.41-10.221-4.331-10.221-4.331-9.182-3.984-7.8-6.41,6.237-4.941,6.237-4.941S125.892,765.3,127.451,763.39Z" transform="translate(-117.087 -557.099)" fill="#2f2e41"/>
    <path id="Tracé_106" data-name="Tracé 106" d="M167.377,500.426,169.24,539.3s-16.992,35.149-18.855,36.08a4.675,4.675,0,0,0-2.328,2.793l-10.242-2.56,4.655-7.449,10.242-24.907a4.106,4.106,0,0,0,2.095-3.026c.466-2.328,1.4-2.328-.931-2.793a2.891,2.891,0,0,1-2.328-2.793l-7.682-35.381Z" transform="translate(-131.559 -374.335)" fill="#2f2e41"/>
    <circle id="Ellipse_35" data-name="Ellipse 35" cx="9.311" cy="9.311" r="9.311" transform="translate(16.757 63.493) rotate(-80.783)" fill="#ffb9b9"/>
    <path id="Tracé_107" data-name="Tracé 107" d="M176.712,272.159s-.7,11.871-1.629,13.035,9.776.931,9.776.931-.7-10.009,0-10.94S176.712,272.159,176.712,272.159Z" transform="translate(-157.536 -215.783)" fill="#ffb9b9"/>
    <path id="Tracé_108" data-name="Tracé 108" d="M165.921,365.894s-26.3-2.327-31.19,0c0,0,1.8-6.674,1.334-7.371-.338-.51.595-19.521.3-30.487-.166-6.188-1.594-12.231,2.557-16.825a12.92,12.92,0,0,1,4.652-3.511s-.465-4.422,1.862-4.655c0,0,8.847-.933,12.1,1.862,1.041.887,1.7,3.592,1.766,5.922-1.612,7.927-1.041,16.723.438,25.848.091.58.19,1.162.29,1.745C161.6,347.472,163.978,356.8,165.921,365.894Z" transform="translate(-129.405 -237.242)" fill="#575a89"/>
    <path id="Tracé_109" data-name="Tracé 109" d="M177.807,240.152a12.4,12.4,0,0,1,2.338.323,5.918,5.918,0,0,0,6.326-4.412,3.385,3.385,0,0,1,.324-1.054,2.088,2.088,0,0,1,2.22-.675,17.13,17.13,0,0,0,2.4.583,3.672,3.672,0,0,0,3.169-1.793,6.082,6.082,0,0,0,.778-3.673l-.609.64a3.1,3.1,0,0,1-.276-1.682,1.952,1.952,0,0,0-1.849.473c-.537.057-.132-1-.531-1.361a.923.923,0,0,0-.65-.122c-1.143.011-2.068-.863-2.968-1.567a12.614,12.614,0,0,0-5.328-2.43,7.009,7.009,0,0,0-3.887.188,8.3,8.3,0,0,0-2.625,1.862A16.026,16.026,0,0,0,172.224,232a11.017,11.017,0,0,0-.053,6.388c.321,1.084,1.289,4.8,2.707,4.884C176.659,243.376,175.59,240.284,177.807,240.152Z" transform="translate(-155.232 -181.615)" fill="#2f2e41"/>
    <path id="Tracé_110" data-name="Tracé 110" d="M189.575,328.181l3.336.357s3.275,6.353,3.037,7.678-.756.521.718,2.641,5.656,7.6,6.174,8.4,14.636-9.968,13.759-13.2c0,0,4.459,3.2,6.369,3.625,0,0-14.55,19.083-16.578,21.525s-3.66,1.941-6.446.493-16.883-15.891-16.883-15.891Z" transform="translate(-163.147 -254.895)" fill="#575a89"/>
    <path id="Tracé_111" data-name="Tracé 111" d="M191.745,391.562l-11.594-11.594,2.934-.957,8.37,10.806C191.546,390.4,191.646,390.98,191.745,391.562Z" transform="translate(-161.115 -290.382)" opacity="0.1"/>
  </g>
</svg>
